<?xml version="1.0" standalone="no"?>
<!DOCTYPE svg PUBLIC "-//W3C//DTD SVG 20010904//EN"
 "http://www.w3.org/TR/2001/REC-SVG-20010904/DTD/svg10.dtd">
<svg version="1.0" xmlns="http://www.w3.org/2000/svg"
 width="260.000000pt" height="260.000000pt" viewBox="0 0 260.000000 260.000000"
 preserveAspectRatio="xMidYMid meet">
<metadata>
Created by potrace 1.11, written by Peter Selinger 2001-2013
</metadata>
<g transform="translate(0.000000,260.000000) scale(0.100000,-0.100000)"
fill="#000000" stroke="none">
<path d="M1351 1723 c-42 -21 -70 -80 -71 -145 0 -45 -1 -47 -32 -50 -32 -3
-33 -5 -33 -48 0 -43 1 -45 32 -48 l33 -3 2 -172 3 -172 55 0 55 0 3 172 2
172 43 3 42 3 0 45 0 45 -42 3 -43 3 0 44 c0 59 21 79 72 71 l38 -6 0 40 c0
34 -4 42 -26 50 -38 15 -95 12 -133 -7z"/>
<path d="M1651 1723 c-42 -21 -70 -80 -71 -145 0 -45 -1 -47 -32 -50 -32 -3
-33 -5 -33 -48 0 -43 1 -45 32 -48 l33 -3 2 -172 3 -172 55 0 55 0 3 172 2
172 43 3 42 3 0 45 0 45 -42 3 -43 3 0 44 c0 59 21 79 72 71 l38 -6 0 40 c0
34 -4 42 -26 50 -38 15 -95 12 -133 -7z"/>
<path d="M1027 1724 c-4 -4 -7 -59 -7 -121 l0 -114 -31 22 c-47 33 -114 36
-169 7 -59 -30 -91 -92 -98 -187 -11 -157 57 -262 170 -261 39 0 107 30 128
55 14 17 15 16 20 -11 5 -27 8 -29 50 -29 l45 0 0 320 0 320 -50 3 c-28 2 -54
0 -58 -4z m-42 -315 c34 -30 35 -33 35 -104 0 -71 -1 -74 -36 -105 -66 -57
-130 -24 -141 73 -7 64 4 115 32 143 33 32 67 30 110 -7z"/>
</g>
</svg>
